<mxfile host="app.diagrams.net" agent="Mozilla/5.0 (Windows NT 10.0; Win64; x64) AppleWebKit/537.36 (KHTML, like Gecko) Chrome/130.0.0.0 Safari/537.36 Edg/130.0.0.0" version="24.8.4">
  <diagram name="第 1 页" id="kw9xoQi-oB55tqnVoYos">
    <mxGraphModel dx="988" dy="676" grid="1" gridSize="10" guides="1" tooltips="1" connect="1" arrows="1" fold="1" page="1" pageScale="1" pageWidth="827" pageHeight="1169" math="0" shadow="0">
      <root>
        <mxCell id="0" />
        <mxCell id="1" parent="0" />
        <mxCell id="2fIPho-jW_3GYT9nzXey-1" value="物理约束&lt;div&gt;速度、加速度、动能&lt;/div&gt;" style="rounded=1;whiteSpace=wrap;html=1;fillColor=#fff2cc;strokeColor=#d6b656;" vertex="1" parent="1">
          <mxGeometry x="217.5" y="270" width="120" height="60" as="geometry" />
        </mxCell>
        <mxCell id="2fIPho-jW_3GYT9nzXey-3" value="" style="endArrow=classic;html=1;rounded=0;" edge="1" parent="1">
          <mxGeometry width="50" height="50" relative="1" as="geometry">
            <mxPoint x="280" y="270" as="sourcePoint" />
            <mxPoint x="280" y="210" as="targetPoint" />
          </mxGeometry>
        </mxCell>
        <mxCell id="2fIPho-jW_3GYT9nzXey-20" style="edgeStyle=orthogonalEdgeStyle;rounded=0;orthogonalLoop=1;jettySize=auto;html=1;" edge="1" parent="1" source="2fIPho-jW_3GYT9nzXey-14" target="2fIPho-jW_3GYT9nzXey-4">
          <mxGeometry relative="1" as="geometry">
            <Array as="points">
              <mxPoint x="278" y="140" />
              <mxPoint x="278" y="140" />
            </Array>
          </mxGeometry>
        </mxCell>
        <mxCell id="2fIPho-jW_3GYT9nzXey-14" value="" style="shape=actor;whiteSpace=wrap;html=1;" vertex="1" parent="1">
          <mxGeometry x="110" y="30" width="40" height="60" as="geometry" />
        </mxCell>
        <mxCell id="2fIPho-jW_3GYT9nzXey-19" value="" style="group" vertex="1" connectable="0" parent="1">
          <mxGeometry x="201.25" y="130" width="152.5" height="100" as="geometry" />
        </mxCell>
        <mxCell id="2fIPho-jW_3GYT9nzXey-4" value="生成模型" style="rounded=0;whiteSpace=wrap;html=1;fillColor=#d5e8d4;strokeColor=none;" vertex="1" parent="2fIPho-jW_3GYT9nzXey-19">
          <mxGeometry x="42.5" y="20" width="70" height="60" as="geometry" />
        </mxCell>
        <mxCell id="2fIPho-jW_3GYT9nzXey-5" value="" style="shape=trapezoid;perimeter=trapezoidPerimeter;whiteSpace=wrap;html=1;fixedSize=1;rotation=90;fillColor=#d5e8d4;strokeColor=none;" vertex="1" parent="2fIPho-jW_3GYT9nzXey-19">
          <mxGeometry x="-27.5" y="28.75" width="97.5" height="42.5" as="geometry" />
        </mxCell>
        <mxCell id="2fIPho-jW_3GYT9nzXey-11" value="" style="shape=trapezoid;perimeter=trapezoidPerimeter;whiteSpace=wrap;html=1;fixedSize=1;rotation=-90;fillColor=#d5e8d4;strokeColor=none;" vertex="1" parent="2fIPho-jW_3GYT9nzXey-19">
          <mxGeometry x="81.25" y="28.75" width="100" height="42.5" as="geometry" />
        </mxCell>
        <mxCell id="2fIPho-jW_3GYT9nzXey-25" value="&lt;p class=&quot;MsoNormal&quot;&gt;&lt;font style=&quot;&quot;&gt;控制&lt;/font&gt;&lt;span style=&quot;background-color: initial;&quot;&gt;速度向量、加速度标量、旋转角度&lt;/span&gt;&lt;/p&gt;" style="rounded=1;whiteSpace=wrap;html=1;fillColor=#fff2cc;strokeColor=#d6b656;" vertex="1" parent="1">
          <mxGeometry x="217.5" y="30" width="120" height="60" as="geometry" />
        </mxCell>
        <mxCell id="2fIPho-jW_3GYT9nzXey-29" value="" style="html=1;shadow=0;dashed=0;align=center;verticalAlign=middle;shape=mxgraph.arrows2.uTurnArrow;dy=11;arrowHead=43;dx2=16.37;direction=south;rotation=90;fillColor=#dae8fc;strokeColor=#6c8ebf;" vertex="1" parent="1">
          <mxGeometry x="335" y="157.5" width="98.38" height="60.62" as="geometry" />
        </mxCell>
        <mxCell id="2fIPho-jW_3GYT9nzXey-30" value="物理损失函数" style="text;html=1;align=center;verticalAlign=middle;resizable=0;points=[];autosize=1;strokeColor=none;fillColor=none;" vertex="1" parent="1">
          <mxGeometry x="400" y="165" width="100" height="30" as="geometry" />
        </mxCell>
        <mxCell id="2fIPho-jW_3GYT9nzXey-34" value="" style="rounded=0;whiteSpace=wrap;html=1;fillColor=#e1d5e7;strokeColor=#9673a6;" vertex="1" parent="1">
          <mxGeometry x="30" y="210.63" width="110" height="10" as="geometry" />
        </mxCell>
        <mxCell id="2fIPho-jW_3GYT9nzXey-35" value="" style="rounded=0;whiteSpace=wrap;html=1;fillColor=#e1d5e7;strokeColor=#9673a6;" vertex="1" parent="1">
          <mxGeometry x="40" y="190.63" width="90" height="8.75" as="geometry" />
        </mxCell>
        <mxCell id="2fIPho-jW_3GYT9nzXey-36" value="" style="rounded=0;whiteSpace=wrap;html=1;fillColor=#e1d5e7;strokeColor=#9673a6;" vertex="1" parent="1">
          <mxGeometry x="55" y="169.38" width="60" height="8.75" as="geometry" />
        </mxCell>
        <mxCell id="2fIPho-jW_3GYT9nzXey-37" value="" style="rounded=0;whiteSpace=wrap;html=1;fillColor=#e1d5e7;strokeColor=#9673a6;" vertex="1" parent="1">
          <mxGeometry x="65" y="151.88" width="40" height="8.75" as="geometry" />
        </mxCell>
        <mxCell id="2fIPho-jW_3GYT9nzXey-39" value="" style="endArrow=classic;startArrow=classic;html=1;rounded=0;entryX=0.5;entryY=1;entryDx=0;entryDy=0;" edge="1" parent="1" target="2fIPho-jW_3GYT9nzXey-5">
          <mxGeometry width="50" height="50" relative="1" as="geometry">
            <mxPoint x="130" y="180" as="sourcePoint" />
            <mxPoint x="240" y="170" as="targetPoint" />
          </mxGeometry>
        </mxCell>
        <mxCell id="2fIPho-jW_3GYT9nzXey-40" value="层级记忆网络" style="text;html=1;align=center;verticalAlign=middle;resizable=0;points=[];autosize=1;strokeColor=none;fillColor=none;" vertex="1" parent="1">
          <mxGeometry x="35" y="216.25" width="100" height="30" as="geometry" />
        </mxCell>
      </root>
    </mxGraphModel>
  </diagram>
</mxfile>
